<?xml version="1.0" encoding="utf-8"?>
<!-- Generator: Adobe Illustrator 25.0.1, SVG Export Plug-In . SVG Version: 6.00 Build 0)  -->
<svg version="1.1" id="Capa_1" xmlns="http://www.w3.org/2000/svg" xmlns:xlink="http://www.w3.org/1999/xlink" x="0px" y="0px"
	 viewBox="0 0 50 50" style="enable-background:new 0 0 50 50;" xml:space="preserve">
<style type="text/css">
	.st0{fill:#292929;}
</style>
<g>
	<path class="st0" d="M49,15.6L38.7,0.9c-0.3-0.5-1.2-0.5-1.5,0L26.8,15.6c-0.2,0.3-0.2,0.6-0.1,1c0.2,0.3,0.5,0.5,0.8,0.5h4.1v7
		h-9.3c-0.5,0-0.9,0.4-0.9,0.9v6.9h-9.5c-0.5,0-0.9,0.4-0.9,0.9V40H1.8c-0.5,0-0.9,0.4-0.9,0.9v7.7c0,0.5,0.4,0.9,0.9,0.9
		s0.9-0.4,0.9-0.9v-6.7H11v6.7c0,0.5,0.4,0.9,0.9,0.9s0.9-0.4,0.9-0.9v-7.7v-7.2h8.3v14.8c0,0.5,0.4,0.9,0.9,0.9c0,0,0.1,0,0.1,0
		c0,0,0.1,0,0.1,0c0.5,0,0.9-0.4,0.9-0.9V25.9h8.3v22.7c0,0.5,0.4,0.9,0.9,0.9c0,0,0,0,0,0c0,0,0,0,0,0c0.5,0,0.9-0.4,0.9-0.9V16.2
		c0-0.5-0.4-0.9-0.9-0.9h-3.2L37.9,3l8.6,12.2h-3.2c-0.5,0-0.9,0.4-0.9,0.9v32.4c0,0.5,0.4,0.9,0.9,0.9c0.5,0,0.9-0.4,0.9-0.9V17.1
		h4.1c0.3,0,0.7-0.2,0.8-0.5C49.2,16.3,49.2,15.9,49,15.6z"/>
</g>
</svg>
