<?xml version="1.0" encoding="utf-8"?>
<!-- Generator: Adobe Illustrator 16.0.0, SVG Export Plug-In . SVG Version: 6.00 Build 0)  -->
<!DOCTYPE svg PUBLIC "-//W3C//DTD SVG 1.1//EN" "http://www.w3.org/Graphics/SVG/1.1/DTD/svg11.dtd">
<svg version="1.1" id="Capa_1" xmlns="http://www.w3.org/2000/svg" xmlns:xlink="http://www.w3.org/1999/xlink" x="0px" y="0px"
	 width="25.766px" height="16.664px" viewBox="283.435 387.719 25.766 16.664"
	 enable-background="new 283.435 387.719 25.766 16.664" xml:space="preserve">
<g>
	<linearGradient id="SVGID_1_" gradientUnits="userSpaceOnUse" x1="285.4963" y1="395.5508" x2="293.2444" y2="395.5508">
		<stop  offset="0" style="stop-color:#FAA61A"/>
		<stop  offset="0.5969" style="stop-color:#F37021"/>
		<stop  offset="1" style="stop-color:#E11B22"/>
	</linearGradient>
	<path fill="url(#SVGID_1_)" d="M285.496,389.905v11.291l7.748-5.149L285.496,389.905z"/>
	<linearGradient id="SVGID_2_" gradientUnits="userSpaceOnUse" x1="286.3469" y1="392.8223" x2="307.3235" y2="392.8223">
		<stop  offset="0" style="stop-color:#FAA61A"/>
		<stop  offset="0.5969" style="stop-color:#F37021"/>
		<stop  offset="1" style="stop-color:#E11B22"/>
	</linearGradient>
	<path fill="url(#SVGID_2_)" d="M297.78,396.378l9.544-7.465h-20.977l9.543,7.465C296.457,396.85,297.213,396.85,297.78,396.378z"/>
	<linearGradient id="SVGID_3_" gradientUnits="userSpaceOnUse" x1="300.425" y1="395.5742" x2="308.1731" y2="395.5742">
		<stop  offset="0" style="stop-color:#FAA61A"/>
		<stop  offset="0.5969" style="stop-color:#F37021"/>
		<stop  offset="1" style="stop-color:#E11B22"/>
	</linearGradient>
	<path fill="url(#SVGID_3_)" d="M300.425,396.047l7.748,5.149v-11.244L300.425,396.047z"/>
	<linearGradient id="SVGID_4_" gradientUnits="userSpaceOnUse" x1="285.4963" y1="399.9922" x2="308.1731" y2="399.9922">
		<stop  offset="0" style="stop-color:#FAA61A"/>
		<stop  offset="0.5969" style="stop-color:#F37021"/>
		<stop  offset="1" style="stop-color:#E11B22"/>
	</linearGradient>
	<path fill="url(#SVGID_4_)" d="M298.63,397.464c-0.52,0.426-1.134,0.614-1.795,0.614c-0.614,0-1.276-0.188-1.795-0.614
		l-0.708-0.566l-8.835,5.858v0.33h22.677v-0.33l-8.882-5.858L298.63,397.464z"/>
</g>
</svg>
