<?xml version="1.0" encoding="utf-8"?>
<!-- Generator: Adobe Illustrator 25.0.1, SVG Export Plug-In . SVG Version: 6.00 Build 0)  -->
<svg version="1.1" id="Capa_1" xmlns="http://www.w3.org/2000/svg" xmlns:xlink="http://www.w3.org/1999/xlink" x="0px" y="0px"
	 viewBox="0 0 50 50" style="enable-background:new 0 0 50 50;" xml:space="preserve">
<style type="text/css">
	.st0{fill:#292929;}
</style>
<g>
	<path class="st0" d="M48.5,24.3h-5.7c-0.5,0-1,0.4-1,1v0.8h-6c-0.1,0-0.3,0-0.4,0.1L28,29.3c-0.9,0.4-1.6,1.1-1.9,1.9
		c-0.4,0.9-0.4,1.9,0,2.7l0,0.1c0.2,0.5,0.5,1,0.9,1.3c-1.2,0.3-2.4,0.3-3.6,0.1L16,33.7c-0.9-0.2-1.9,0-2.7,0.5
		c-0.8,0.5-1.3,1.3-1.5,2.2c-0.4,1.8,0.7,3.6,2.5,4.1l8.9,2.3c0.8,0.2,1.5,0.3,2.3,0.3c1.1,0,2.3-0.2,3.4-0.6l11.4-4.5h1.6v0.5
		c0,0.5,0.4,1,1,1h5.7c0.5,0,1-0.4,1-1V25.3C49.5,24.7,49.1,24.3,48.5,24.3z M40.1,36c-0.1,0-0.2,0-0.3,0.1l-11.5,4.5
		c-1.4,0.6-3,0.7-4.5,0.3l-8.9-2.3c-0.8-0.2-1.3-1-1.1-1.8c0.1-0.4,0.3-0.8,0.7-1c0.3-0.2,0.5-0.2,0.8-0.2c0.1,0,0.2,0,0.4,0
		l7.5,1.7c1.8,0.4,3.7,0.3,5.4-0.4l2.2-0.8c0,0,0.1,0,0.1,0c1.9-0.7,4.4-1.7,4.9-1.9l0.1,0c0.5-0.2,0.7-0.7,0.5-1.2
		c-0.2-0.5-0.7-0.7-1.2-0.5c0,0,0,0-0.1,0l-5,1.9c-0.8,0.3-1.8-0.1-2.1-1l0-0.1c-0.2-0.4-0.2-0.9,0-1.3s0.5-0.7,0.9-0.9l7.5-3.1h5.8
		v8H40.1z M47.6,37.5h-3.8V26.2h3.8V37.5z"/>
	<path class="st0" d="M9.8,23.9H8.1V15h0.3c0.7,0,1.4-0.2,2-0.5c0,0,0.1,0,0.1-0.1l6.2-4c0.9-0.4,1.9-0.3,2.7,0.2l0.4,0.3
		c0,0-0.1,0.1-0.1,0.1c-0.1,0.2-0.2,0.3-0.3,0.5c-0.7,1.1-1.1,2.3-1.2,3.6c-0.7,0.1-1.3,0.4-1.7,0.8c-0.5,0.5-0.8,1.3-0.8,2
		c0,1.6,1.3,2.9,2.9,2.9h7.1c0.4,0,0.8,0.2,1,0.4c0.3,0.3,0.4,0.6,0.4,1c0,0.6-0.3,1.1-0.9,1.3c-0.1,0-0.1,0-0.2,0.1c0,0,0,0,0,0
		c-0.1,0-0.3,0.1-0.4,0.1H9.4c-0.5,0-1,0.4-1,1s0.4,1,1,1h16.2c0.2,0,0.5,0,0.7-0.1c0.4,0.1,0.8,0.1,1.2,0.1c5.2,0,9.4-4.2,9.4-9.4
		c0-5.2-4.2-9.4-9.4-9.4c-2.4,0-4.7,0.9-6.4,2.5l-0.6-0.4c-1.4-1-3.2-1.2-4.7-0.4c0,0-0.1,0-0.1,0l-6.2,4C9.1,13,8.7,13,8.3,13H8.1
		v-0.3c0-0.5-0.4-1-1-1H1.5c-0.5,0-1,0.4-1,1v13.2c0,0.5,0.4,1,1,1h5.7c0.5,0,1-0.4,1-1v0h1.7c0.5,0,1-0.4,1-1S10.3,23.9,9.8,23.9z
		 M17.5,18.1c0-0.3,0.1-0.5,0.3-0.7c0.1-0.1,0.2-0.2,0.3-0.2c0.1,0.6,0.2,1.3,0.3,1.9C17.9,19,17.5,18.6,17.5,18.1z M35,16.4
		c0,3.7-2.8,6.9-6.4,7.4c0.2-0.4,0.3-0.9,0.3-1.4c0-0.6-0.1-1.1-0.4-1.6c0.4-0.1,0.8-0.3,1.1-0.6c0.4-0.4,0.6-0.9,0.6-1.4v-1.4
		c0-1.1-0.9-2-2-2h-1.4c-0.1,0-0.1,0-0.1-0.1V14c0-0.1,0-0.1,0.1-0.1h0.7h0h0h0.7c0.1,0,0.1,0,0.1,0.1c0,0.5,0.4,1,1,1
		c0.5,0,1-0.4,1-1c0-1-0.8-1.9-1.8-2v-0.3c0-0.5-0.4-1-1-1s-1,0.4-1,1V12c-1,0.1-1.8,1-1.8,2v1.3c0,1.1,0.9,2,2,2h1.4
		c0.1,0,0.1,0,0.1,0.1v1.4c0,0,0,0,0,0.1c0,0,0,0-0.1,0h-1.4c-0.1,0-0.1,0-0.1-0.1v-0.1c0-0.5-0.4-1-1-1s-1,0.4-1,1v0.1
		c0,0.1,0,0.2,0,0.2h-4.3c-0.3-0.8-0.5-1.7-0.5-2.7c0-1.4,0.4-2.8,1.2-4c0.2-0.3,0.5-0.7,0.7-1c1.4-1.6,3.5-2.5,5.6-2.5
		C31.6,8.9,35,12.3,35,16.4z M6.2,24.9H2.4V13.7h3.8V24.9z"/>
</g>
</svg>
