<?xml version="1.0" encoding="utf-8"?>
<!-- Generator: Adobe Illustrator 25.0.1, SVG Export Plug-In . SVG Version: 6.00 Build 0)  -->
<svg version="1.1" id="Capa_1" xmlns="http://www.w3.org/2000/svg" xmlns:xlink="http://www.w3.org/1999/xlink" x="0px" y="0px"
	 viewBox="0 0 50 50" style="enable-background:new 0 0 50 50;" xml:space="preserve">
<style type="text/css">
	.st0{fill:#292929;}
</style>
<g>
	<path class="st0" d="M20.9,39.8H8c0,0-0.1,0-0.1,0c-0.7-0.1-2-0.9-1.8-2.9c0.2-1.8,1.9-11.6,2-12c0-0.1,0.5-3.8,4.6-5.2
		c0.9-0.3,1.7-0.6,2.3-0.8c2.1-0.8,3.2-1.2,4.1-0.2c0.4,0.5,2.9,3.1,4.5,4.8l4.8-5.1c0.2-0.2,0.4-0.3,0.6-0.3h0.8
		c0.1,0,9.3,0.4,9.7,9.6c0,0.4-0.3,0.8-0.8,0.9c-0.5,0-0.8-0.3-0.9-0.8c-0.4-7.7-7.8-8.1-8.1-8.1l-0.4,0l-5.1,5.5
		c-0.2,0.2-0.4,0.3-0.6,0.3c-0.2,0-0.4-0.1-0.6-0.2c-0.2-0.2-4.6-4.7-5.2-5.5c-0.2-0.1-1.3,0.3-2.2,0.6c-0.6,0.2-1.4,0.5-2.3,0.8
		c-3.1,1-3.5,3.8-3.5,3.9c0,0.1-1.8,10.2-2,12c-0.1,0.8,0.2,1.1,0.4,1.1h11.9c0-1.2-0.1-3.2-0.1-4c0-0.1,0-0.2,0-0.2
		c0,0-0.1,0-0.2,0c0,0,0,0,0,0l-6.7,0c-0.2,0-0.4-0.1-0.6-0.3c-0.2-0.2-0.2-0.4-0.2-0.6l0.5-6.1c0-0.4,0.4-0.8,0.9-0.7
		c0.4,0,0.8,0.4,0.7,0.9L14,32.3h5.8c0.1,0,0.8,0,1.3,0.5c0.2,0.2,0.5,0.7,0.5,1.4c0,1.1,0.1,4.8,0.1,4.8c0,0.2-0.1,0.4-0.2,0.6
		C21.3,39.7,21.1,39.8,20.9,39.8z"/>
	<path class="st0" d="M25.6,39.8h-2.4c-0.5,0-0.8-0.4-0.8-0.8c0-0.4,0.4-0.8,0.8-0.8h2.4c0.1,0,0.1,0,0.1,0c0-0.1,0-0.3-0.1-0.5
		c-0.9-2.5-3.2-2.6-3.3-2.6h-1.2c-0.5,0-0.8-0.4-0.8-0.8s0.4-0.8,0.8-0.8h1.2c0.1,0,3.4,0,4.8,3.7c0.1,0.2,0.4,1.2-0.1,2
		C26.9,39.4,26.5,39.8,25.6,39.8z"/>
	<path class="st0" d="M23.6,45.2H6.4c-0.3,0-0.6-0.2-0.8-0.5S5.6,44,5.8,43.8l5.6-5.4c0.3-0.3,0.8-0.3,1.2,0c0.3,0.3,0.3,0.8,0,1.2
		l-4.1,4h14.4v-2.5c0-0.4,0.4-0.8,0.8-0.8c0.5,0,0.8,0.4,0.8,0.8v3.3C24.4,44.8,24.1,45.2,23.6,45.2z"/>
	<path class="st0" d="M23.4,17.4c-4,0-7.3-3.7-7.3-8.2S19.4,1,23.4,1s7.3,3.7,7.3,8.2S27.5,17.4,23.4,17.4z M23.4,2.6
		c-3.1,0-5.7,3-5.7,6.6s2.6,6.6,5.7,6.6s5.7-3,5.7-6.6S26.6,2.6,23.4,2.6z"/>
	<path class="st0" d="M33.7,37.3c-0.2,0-0.4,0.2-0.4,0.4v0c0,0.2,0.2,0.4,0.4,0.4c0.2,0,0.4-0.2,0.4-0.4c0,0,0,0,0,0
		C34.1,37.5,33.9,37.3,33.7,37.3z"/>
	<g>
		<path class="st0" d="M33.7,29.7c-2.4,0-4.8,0.6-4.8,1.9v11.6c0,1.2,2.4,1.9,4.8,1.9c0.1,0,0.1,0,0.2,0c0.7,2.2,2.7,3.7,5,3.7
			c2.9,0,5.2-2.3,5.2-5.2s-2.3-5.2-5.2-5.2c-0.1,0-0.3,0-0.4,0c0-0.2,0-3.9,0-4.4c0,0,0,0,0,0c0,0,0,0,0,0l0-2.3v0
			C38.6,30.3,36.1,29.7,33.7,29.7z M34,41.9c-0.1,0-0.2,0-0.3,0c-1.2,0-2.2-0.1-3-0.4c-0.8-0.3-1.1-0.6-1.1-0.7v-1.3
			c0.9,0.5,2.5,0.8,4.1,0.8c0.4,0,0.8,0,1.1,0C34.5,40.8,34.2,41.3,34,41.9z M35.7,39.4c-0.6,0.1-1.3,0.2-2,0.2
			c-1.2,0-2.2-0.1-3-0.4c-0.8-0.3-1.1-0.6-1.1-0.7v-1.2c0.2,0.1,0.4,0.2,0.7,0.3c0.6,0.2,1.7,0.4,1.9,0.4c0.2,0,0.3-0.1,0.4-0.3
			c0-0.2-0.1-0.4-0.3-0.4c-0.1,0-1.4-0.2-2.2-0.6c-0.3-0.2-0.4-0.3-0.4-0.4c0-0.1,0,0.1,0-1.3c0.9,0.5,2.5,0.8,4.1,0.8
			c1.2,0,2.4-0.2,3.2-0.4c0.4-0.1,0.6-0.2,0.9-0.4c0,1.4,0,1.3,0,1.3c0,0.1-0.1,0.1-0.1,0.2c0,0-0.6,0.6-2.5,0.8l0,0
			c-0.2,0-0.4,0.2-0.3,0.4c0,0.2,0.2,0.3,0.4,0.3c0.4,0,1.9-0.3,2.6-0.7l0,1.2C37.1,38.6,36.3,38.9,35.7,39.4z M37.8,36.3
			C37.8,36.3,37.8,36.3,37.8,36.3C37.8,36.3,37.8,36.3,37.8,36.3z M37.8,33.9c0,0.1-0.3,0.4-1.1,0.7c-0.8,0.3-1.9,0.4-3,0.4
			c-1.2,0-2.2-0.1-3-0.4c-0.8-0.3-1.1-0.6-1.1-0.7v-1.3c0.9,0.5,2.5,0.8,4.1,0.8c1.6,0,3.2-0.3,4.1-0.8L37.8,33.9z M30.7,30.8
			c0.8-0.3,1.9-0.4,3-0.4s2.2,0.1,3,0.4c0.8,0.3,1.1,0.6,1.1,0.7s-0.2,0.4-1.1,0.7c-0.8,0.3-1.9,0.4-3,0.4s-2.2-0.1-3-0.4
			c-0.8-0.3-1.1-0.6-1.1-0.7S29.8,31.1,30.7,30.8z M30.7,43.8c-0.8-0.3-1.1-0.6-1.1-0.7v-1.3c0.9,0.5,2.5,0.8,4.1,0.8c0,0,0,0,0.1,0
			c0,0.3-0.1,0.6-0.1,0.9c0,0.2,0,0.5,0.1,0.7c0,0,0,0-0.1,0C32.6,44.3,31.5,44.1,30.7,43.8z M43.4,43.5c0,2.5-2,4.5-4.5,4.5
			c-2.1,0-3.9-1.4-4.3-3.4c0,0,0,0,0,0c0,0,0,0,0,0c-0.1-0.3-0.1-0.7-0.1-1c0-0.4,0-0.8,0.1-1.1c0.5-1.9,2.2-3.3,4.3-3.3
			C41.4,39.1,43.4,41.1,43.4,43.5z"/>
		<path class="st0" d="M38.9,49c-2.3,0-4.4-1.5-5.2-3.7h0c-2.5,0-5.1-0.7-5.1-2.1V31.5c0-1.5,2.6-2.1,5.1-2.1c2.5,0,5.1,0.7,5.1,2.1
			l0,6.5c3.1-0.1,5.6,2.4,5.6,5.5C44.4,46.5,41.9,49,38.9,49z M34.1,44.7l0.1,0.2c0.6,2.1,2.6,3.5,4.7,3.5c2.7,0,4.9-2.2,4.9-4.9
			s-2.2-4.9-4.9-4.9c-0.1,0-0.2,0-0.4,0l-0.3,0l0-7.1c0-0.9-2-1.6-4.6-1.6c-2.6,0-4.6,0.7-4.6,1.6v11.6c0,0.9,2,1.6,4.6,1.6
			L34.1,44.7z M38.9,48.3c-2.2,0-4.1-1.5-4.6-3.6l0-0.1c-0.1-0.3-0.1-0.7-0.1-1.1c0-0.4,0.1-0.8,0.2-1.2c0.5-2.1,2.4-3.5,4.6-3.5
			c2.6,0,4.7,2.1,4.7,4.7S41.5,48.3,38.9,48.3z M34.8,44.5L34.8,44.5c0.5,1.9,2.1,3.3,4.1,3.3c2.3,0,4.2-1.9,4.2-4.2
			s-1.9-4.2-4.2-4.2c-1.9,0-3.6,1.3-4.1,3.1c-0.1,0.3-0.1,0.7-0.1,1.1C34.7,43.8,34.8,44.1,34.8,44.5z M33.8,44.5
			c-1.2,0-2.3-0.2-3.2-0.4l0,0c-0.8-0.3-1.2-0.6-1.2-1v-1.8l0.4,0.2c0.8,0.5,2.3,0.8,4,0.8H34l0,0.3c0,0.3-0.1,0.5-0.1,0.8
			c0,0.2,0,0.5,0.1,0.7l0,0.3H33.8C33.8,44.5,33.8,44.5,33.8,44.5z M30.8,43.6c0.7,0.2,1.7,0.4,2.7,0.4c0-0.2,0-0.3,0-0.5
			c0-0.2,0-0.4,0-0.6c-1.4,0-2.7-0.3-3.6-0.6v0.9C29.9,43.1,30,43.3,30.8,43.6L30.8,43.6z M33.7,42.2c-1.2,0-2.3-0.2-3.1-0.4
			c-0.8-0.3-1.2-0.6-1.2-1V39l0.4,0.2c0.8,0.5,2.3,0.8,4,0.8c0.4,0,0.7,0,1.1,0l0.6-0.1l-0.4,0.5c-0.4,0.5-0.7,1-0.8,1.6l-0.1,0.2
			L33.7,42.2z M29.9,40.8c0,0,0.2,0.2,0.9,0.4c0.8,0.3,1.8,0.4,3,0.4l0.1,0c0.1-0.4,0.3-0.7,0.5-1.1c-1.7,0.1-3.4-0.2-4.4-0.6
			L29.9,40.8C29.9,40.8,29.9,40.8,29.9,40.8z M33.7,39.8c-1.2,0-2.3-0.2-3.1-0.4c-0.8-0.3-1.2-0.6-1.2-1v-1.7l0.4,0.2
			c0.2,0.1,0.4,0.2,0.6,0.3c0.6,0.2,1.7,0.4,1.9,0.4c0.1,0,0.1,0,0.1-0.1c0,0,0-0.1,0-0.1c0,0,0,0-0.1,0l-0.1,0
			c-1-0.1-1.8-0.3-2.3-0.6c-0.3-0.2-0.4-0.3-0.5-0.5l0-0.1c0,0,0,0,0-0.2c0-0.2,0-0.5,0-1.2l0-0.5l0.4,0.2c0.8,0.5,2.3,0.8,4,0.8
			c1.2,0,2.3-0.2,3.2-0.4c0.3-0.1,0.6-0.2,0.8-0.3l0.4-0.2l0,1.6c0,0.2,0,0.2,0,0.2c0,0.1-0.1,0.2-0.2,0.3l0,0
			c-0.2,0.2-0.9,0.7-2.6,0.9c-0.1,0-0.1,0.1-0.1,0.1c0,0.1,0,0.1,0.1,0.1c0.4,0,1.8-0.3,2.5-0.7l0.4-0.2l0,1.9l-0.2,0
			c-0.7,0.2-1.4,0.5-2,0.9l-0.1,0l-0.1,0C35.1,39.8,34.4,39.8,33.7,39.8z M29.9,38.5c0,0,0.2,0.2,0.9,0.4c0.8,0.3,1.8,0.4,3,0.4
			c0.7,0,1.3-0.1,1.9-0.1c0.6-0.4,1.2-0.8,1.9-0.9l0-0.5c-0.8,0.3-1.9,0.6-2.3,0.6c-0.3,0-0.6-0.2-0.6-0.6c0-0.2,0-0.3,0.1-0.5
			c0.1-0.1,0.3-0.2,0.4-0.2c1.8-0.2,2.3-0.7,2.4-0.7l0,0c0,0,0,0,0,0l0-0.8c-0.2,0.1-0.3,0.1-0.5,0.2C36.1,35.8,35,36,33.7,36
			c-1.5,0-2.9-0.2-3.8-0.6c0,0.4,0,0.6,0,0.7c0,0,0,0.1,0,0.1c0,0.1,0.1,0.1,0.3,0.2c0.3,0.2,0.9,0.4,2.1,0.6l0.1,0
			c0.2,0,0.3,0.1,0.4,0.2c0.1,0.1,0.2,0.3,0.1,0.5c0,0.3-0.3,0.6-0.6,0.6c-0.3,0-1.4-0.2-2-0.4c-0.1,0-0.2-0.1-0.3-0.1L29.9,38.5
			C29.9,38.5,29.9,38.5,29.9,38.5z M38.1,36.3L38.1,36.3L38.1,36.3z M33.7,35.3c-1.2,0-2.3-0.2-3.1-0.4c-0.8-0.3-1.2-0.6-1.2-1v-1.8
			l0.4,0.2c0.8,0.5,2.3,0.8,4,0.8c1.6,0,3.2-0.3,4-0.8l0.4-0.2l0,1.8c0,0.3-0.5,0.7-1.3,0.9C36,35.1,34.9,35.3,33.7,35.3z
			 M29.9,33.9c0,0,0.2,0.2,0.9,0.4c0.8,0.3,1.8,0.4,3,0.4c1.1,0,2.2-0.1,2.9-0.4c0.7-0.2,0.9-0.4,0.9-0.5l0-0.8
			c-0.9,0.4-2.3,0.6-3.8,0.6c-1.5,0-2.9-0.2-3.8-0.6L29.9,33.9C29.9,33.9,29.9,33.9,29.9,33.9z M33.7,32.9c-1.2,0-2.3-0.2-3.1-0.4
			c-0.8-0.3-1.2-0.6-1.2-1c0-0.3,0.5-0.7,1.2-1h0c0.8-0.3,1.9-0.4,3.1-0.4c1.2,0,2.3,0.2,3.1,0.4c0.8,0.3,1.2,0.6,1.2,1
			c0,0.3-0.5,0.7-1.2,1C36,32.8,34.9,32.9,33.7,32.9z M29.9,31.5c0.1,0.1,0.3,0.3,0.8,0.4c0.8,0.3,1.8,0.4,3,0.4
			c1.1,0,2.2-0.1,3-0.4c0.6-0.2,0.8-0.4,0.8-0.4c-0.1-0.1-0.3-0.3-0.8-0.4c-0.8-0.3-1.8-0.4-3-0.4c-1.1,0-2.2,0.1-3,0.4
			C30.2,31.3,30,31.5,29.9,31.5z"/>
	</g>
	<path class="st0" d="M37.8,42.8c0,0.6,0.5,1.1,1.1,1.1c0.2,0,0.4,0.2,0.4,0.4s-0.2,0.4-0.4,0.4c-0.2,0-0.3-0.1-0.5-0.3
		c-0.1-0.2-0.4-0.2-0.5,0c-0.2,0.1-0.2,0.4,0,0.5c0.2,0.2,0.4,0.4,0.7,0.5v0.4c0,0.2,0.2,0.4,0.4,0.4c0.2,0,0.4-0.2,0.4-0.4v-0.4
		c0.4-0.2,0.7-0.6,0.7-1.1c0-0.6-0.5-1.1-1.1-1.1c-0.2,0-0.4-0.2-0.4-0.4s0.2-0.4,0.4-0.4c0.1,0,0.3,0.1,0.4,0.2
		c0.1,0.1,0.4,0.1,0.5,0c0.1-0.1,0.1-0.4,0-0.5c-0.2-0.2-0.4-0.3-0.5-0.3v-0.4c0-0.2-0.2-0.4-0.4-0.4c-0.2,0-0.4,0.2-0.4,0.4v0.4
		C38.1,41.9,37.8,42.3,37.8,42.8z"/>
</g>
</svg>
