<?xml version="1.0" encoding="utf-8"?>
<!-- Generator: Adobe Illustrator 25.0.1, SVG Export Plug-In . SVG Version: 6.00 Build 0)  -->
<svg version="1.1" id="Capa_1" xmlns="http://www.w3.org/2000/svg" xmlns:xlink="http://www.w3.org/1999/xlink" x="0px" y="0px"
	 viewBox="0 0 50 50" style="enable-background:new 0 0 50 50;" xml:space="preserve">
<style type="text/css">
	.st0{fill:#292929;}
	.st1{fill:none;stroke:#292929;stroke-width:3;stroke-linecap:round;stroke-linejoin:round;stroke-miterlimit:10;}
</style>
<g>
	<path class="st0" d="M13,19.9c0,0-0.1,0-0.1,0C10,19.5,8,17.1,8,14.2c0-3.2,2.6-5.8,5.8-5.8c2.4,0,4.6,1.5,5.4,3.8
		c0.2,0.5-0.1,1-0.5,1.1c-0.5,0.2-1-0.1-1.1-0.5c-0.6-1.6-2.1-2.6-3.8-2.6c-2.2,0-4,1.8-4,4c0,2,1.5,3.7,3.4,4
		c0.5,0.1,0.8,0.5,0.7,1C13.8,19.6,13.4,19.9,13,19.9z"/>
	<path class="st0" d="M6.5,25.4c-0.2,0-0.4-0.1-0.6-0.2L3,22.4c-0.3-0.3-0.4-0.8-0.1-1.2l1.6-2.1c-0.3-0.6-0.5-1.1-0.7-1.7l-2.4-0.2
		c-0.5,0-0.8-0.4-0.8-0.9v-4c0-0.4,0.3-0.8,0.8-0.9l2.4-0.3c0.2-0.6,0.5-1.3,0.8-1.9L2.9,7.4C2.7,7.1,2.7,6.6,3,6.2l2.7-2.8
		C6,3.1,6.5,3.1,6.9,3.4l1.8,1.5C9.5,4.5,10.2,4.2,11,4l0.1-2.3c0-0.5,0.4-0.8,0.9-0.8h3.7c0.5,0,0.8,0.4,0.9,0.8L16.8,4
		c0.6,0.2,1.3,0.4,1.9,0.8l2.1-1.4c0.4-0.2,0.8-0.2,1.1,0.1l2.5,2.8c0.3,0.3,0.3,0.8,0,1.1l-1.4,1.7c0.2,0.3,0.3,0.7,0.5,1
		c0.2,0.4,0,1-0.5,1.1c-0.4,0.2-1,0-1.1-0.5c-0.2-0.4-0.4-0.9-0.7-1.3c-0.2-0.3-0.2-0.7,0.1-1L22.7,7l-1.5-1.7l-2,1.3
		c-0.3,0.2-0.6,0.2-0.9,0c-0.8-0.5-1.6-0.8-2.5-1c-0.4-0.1-0.7-0.4-0.7-0.8l-0.2-2.2h-2.1l-0.1,2.1c0,0.4-0.3,0.7-0.7,0.8
		c-1,0.2-2,0.6-2.9,1.2c-0.3,0.2-0.7,0.2-1-0.1L6.4,5.2L4.8,6.9l1.4,1.7c0.2,0.3,0.3,0.7,0.1,1c-0.5,0.8-0.8,1.6-1,2.5
		c-0.1,0.4-0.4,0.6-0.7,0.7l-2.2,0.3v2.4l2.2,0.2c0.4,0,0.7,0.3,0.8,0.7c0.2,0.9,0.6,1.7,1,2.4c0.2,0.3,0.2,0.7,0,1l-1.4,2l1.7,1.6
		L8,21.8c0.3-0.3,0.7-0.3,1.1-0.1c0.7,0.4,1.3,0.7,2.1,1c0.5,0.1,0.7,0.6,0.6,1.1c-0.1,0.5-0.6,0.7-1.1,0.6
		c-0.6-0.2-1.3-0.5-1.9-0.8l-1.6,1.7C7,25.4,6.8,25.4,6.5,25.4z"/>
	<path class="st0" d="M40.6,40.5c-1.5,0-2.9-0.8-3.6-2.1c-0.2-0.4-0.1-1,0.4-1.2c0.4-0.2,1-0.1,1.2,0.4c0.4,0.8,1.4,1.3,2.3,1.2
		c1.2-0.2,2.1-1.3,1.9-2.5c-0.1-1.1-1.1-1.9-2.2-2c-0.5,0-0.9-0.4-0.9-0.9c0-0.5,0.4-0.9,0.9-0.9c2,0,3.6,1.5,3.9,3.5
		c0.3,2.2-1.3,4.2-3.5,4.5C41,40.5,40.8,40.5,40.6,40.5z"/>
	<path class="st0" d="M40.4,45.5c-0.4,0-0.8-0.3-0.9-0.7l-0.3-1.3c-0.3-0.1-0.6-0.1-0.9-0.2l-1.1,1c-0.3,0.3-0.8,0.3-1.1,0l-1.8-1.6
		c-0.3-0.3-0.4-0.7-0.2-1.1l0.6-1c-0.1-0.1-0.2-0.3-0.3-0.5c-0.2-0.4-0.1-1,0.3-1.2c0.4-0.2,1-0.1,1.2,0.3c0.1,0.3,0.3,0.5,0.5,0.7
		c0.2,0.3,0.3,0.7,0.1,1l-0.5,0.9l0.7,0.6l0.9-0.8c0.3-0.2,0.6-0.3,0.9-0.1c0.5,0.2,1,0.3,1.6,0.4c0.4,0,0.7,0.3,0.8,0.7l0.2,1.1
		l0.7-0.1l-0.1-1.1c0-0.4,0.2-0.8,0.6-0.9c0.6-0.2,1.1-0.5,1.6-0.9c0.3-0.2,0.7-0.3,1-0.1l0.9,0.6l0.5-0.7l-0.8-0.8
		c-0.3-0.3-0.3-0.6-0.2-1c0.2-0.5,0.4-1.1,0.4-1.6c0-0.4,0.3-0.7,0.6-0.8l1.1-0.3l-0.1-1l-1.1,0.1c-0.4,0-0.7-0.2-0.9-0.5
		c-0.2-0.5-0.5-1-0.8-1.4c-0.2-0.3-0.3-0.7-0.1-1l0.6-1.1l-0.8-0.6l-0.6,0.9c-0.2,0.3-0.7,0.4-1.1,0.3c-0.4-0.2-0.9-0.3-1.3-0.4
		c-0.5-0.1-0.8-0.5-0.7-1c0.1-0.5,0.5-0.8,1-0.7c0.4,0.1,0.7,0.2,1.1,0.3l0.8-1c0.3-0.4,0.8-0.5,1.2-0.2l2.1,1.5
		c0.4,0.3,0.5,0.7,0.3,1.1l-0.7,1.3c0.2,0.2,0.3,0.5,0.4,0.7l1.4-0.1c0.5,0,0.9,0.3,0.9,0.8l0.3,2.5c0.1,0.4-0.2,0.8-0.6,1l-1.3,0.4
		c-0.1,0.3-0.1,0.6-0.2,0.9l1,0.9c0.3,0.3,0.4,0.8,0.1,1.2l-1.5,2c-0.3,0.4-0.8,0.5-1.2,0.2l-1.1-0.7c-0.3,0.2-0.7,0.4-1,0.6
		l0.1,1.3c0,0.5-0.3,0.9-0.8,0.9l-2.4,0.3C40.5,45.5,40.4,45.5,40.4,45.5z"/>
	<g>
		<path class="st0" d="M12.1,28.8c0.5,0,0.9-0.4,0.9-0.9c0-0.5-0.4-0.9-0.9-0.9h-1.3c-0.2,0-0.4,0-0.6,0c-0.5,0-0.8,0.5-0.8,1
			c0,0.5,0.4,0.8,0.9,0.8c0,0,0.1,0,0.1,0c0.1,0,0.3,0,0.4,0H12.1z"/>
		<path class="st0" d="M6.3,31.1c0.3,0,0.6-0.1,0.7-0.4c0.3-0.4,0.6-0.8,1-1.1c0.4-0.3,0.5-0.8,0.2-1.2C8,28.1,7.4,28,7,28.3
			c-0.6,0.4-1,0.9-1.4,1.5c-0.3,0.4-0.2,0.9,0.2,1.2C6,31.1,6.2,31.1,6.3,31.1z"/>
		<path class="st0" d="M18,37.9h-1.8c-0.5,0-0.9,0.4-0.9,0.9s0.4,0.9,0.9,0.9H18c0.5,0,0.9-0.4,0.9-0.9S18.5,37.9,18,37.9z"/>
		<path class="st0" d="M13.2,37.9h-1.8c-0.5,0-0.9,0.4-0.9,0.9s0.4,0.9,0.9,0.9h1.8c0.5,0,0.9-0.4,0.9-0.9S13.7,37.9,13.2,37.9z"/>
		<path class="st0" d="M6.4,34.5c-0.1-0.4-0.2-0.8-0.2-1.2c0-0.1,0-0.2,0-0.3c0-0.5-0.3-0.9-0.8-0.9c-0.5,0-0.9,0.3-0.9,0.8
			c0,0.1,0,0.2,0,0.4c0,0.6,0.1,1.1,0.2,1.7c0.1,0.4,0.5,0.6,0.8,0.6c0.1,0,0.2,0,0.2,0C6.3,35.5,6.5,35,6.4,34.5z"/>
		<path class="st0" d="M8.9,37.4c-0.5-0.2-0.9-0.5-1.2-0.8c-0.4-0.3-0.9-0.3-1.2,0c-0.3,0.4-0.3,0.9,0,1.2C7,38.4,7.6,38.8,8.2,39
			c0.1,0.1,0.2,0.1,0.4,0.1c0.3,0,0.7-0.2,0.8-0.5C9.6,38.2,9.4,37.7,8.9,37.4z"/>
		<path class="st0" d="M36.7,15.8h1.9c0.5,0,0.9-0.4,0.9-0.9S39.1,14,38.6,14h-1.9c-0.5,0-0.9,0.4-0.9,0.9S36.2,15.8,36.7,15.8z"/>
		<path class="st0" d="M43.9,24.5c-0.5,0.2-1,0.3-1.5,0.3c-0.5,0-0.9,0.4-0.8,0.9c0,0.5,0.4,0.8,0.9,0.8c0,0,0,0,0,0
			c0.7,0,1.5-0.2,2.2-0.5C45,26,45.2,25.5,45,25C44.8,24.6,44.3,24.3,43.9,24.5z"/>
		<path class="st0" d="M47.6,20.8c-0.5-0.1-0.9,0.2-1.1,0.6c-0.1,0.5-0.3,1-0.6,1.5c-0.3,0.4-0.2,0.9,0.2,1.2
			c0.2,0.1,0.3,0.2,0.5,0.2c0.3,0,0.6-0.1,0.7-0.4c0.4-0.6,0.7-1.3,0.9-2C48.4,21.4,48.1,20.9,47.6,20.8z"/>
		<path class="st0" d="M47.2,19.4c0.1,0,0.2,0,0.3-0.1c0.5-0.2,0.7-0.7,0.5-1.1c-0.3-0.7-0.6-1.3-1.1-1.9c-0.3-0.4-0.9-0.4-1.2-0.1
			c-0.4,0.3-0.4,0.9-0.1,1.2c0.3,0.4,0.6,0.9,0.8,1.4C46.5,19.2,46.9,19.4,47.2,19.4z"/>
		<path class="st0" d="M42.1,15.8c0.4,0,0.9,0.1,1.3,0.2c0.1,0,0.2,0,0.3,0c0.4,0,0.7-0.2,0.8-0.6c0.1-0.5-0.1-1-0.6-1.1
			c-0.6-0.2-1.2-0.3-1.8-0.3h-0.4c-0.5,0-0.9,0.4-0.9,0.9s0.4,0.9,0.9,0.9H42.1z"/>
		<path class="st0" d="M39.2,24.9H39c0-3.9-1.9-7.3-4.7-9.5c0.1-0.1,0.1-0.3,0.1-0.4c0-0.5-0.4-0.9-0.9-0.9h-0.9
			c-0.1,0-0.2,0-0.3,0.1c-1.7-0.8-3.5-1.3-5.5-1.3c-6.7,0-12.2,5.5-12.2,12.2c0,0.7,0.1,1.4,0.2,2.1c-0.4,0.1-0.7,0.4-0.7,0.8
			c0,0.5,0.4,0.9,0.9,0.9h0.2c0.6,1.7,1.5,3.3,2.7,4.6c0.8,0.9,1.8,1.6,2.9,2.2v2.3c-0.5,0-0.9,0.4-0.9,0.9s0.4,0.9,0.9,0.9v3
			c0,1.8,1.1,3.3,2.7,3.9c0.3,1.5,1.6,2.7,3.2,2.7c1.6,0,2.9-1.2,3.2-2.7c1.6-0.6,2.7-2.1,2.7-3.9v-7c1.3-0.7,2.4-1.6,3.4-2.8
			c1.5-1.8,2.5-3.9,2.8-6.2h0.3c0.5,0,0.9-0.4,0.9-0.9S39.7,24.9,39.2,24.9z M26.8,47.4c-0.5,0-1-0.3-1.3-0.7h2.5
			C27.8,47.1,27.3,47.4,26.8,47.4z M31,42.6c0,1.3-1.1,2.4-2.4,2.4h-3.5c-1.3,0-2.4-1.1-2.4-2.4v-0.5H31V42.6z M26.3,33.4
			c0.2,0,0.3,0,0.5,0c0.2,0,0.4,0,0.6,0c-0.3,2.7,0,5.6,0.1,6.9h-1.5C26.2,38.9,26.4,36,26.3,33.4z M34.8,31.7
			c-0.9,1.1-2,1.9-3.3,2.6c-0.3,0.1-0.5,0.5-0.5,0.8v5.3h-1.6c-0.2-1.9-0.3-4.7-0.1-7c1.7-0.2,2.9-0.7,3.6-1.6
			c0.8-1,0.6-2.1,0.6-2.3c0-0.1-0.4-1.3-1.5-1.6c-0.8-0.3-1.7,0-2.7,0.7c-0.8,0.6-1.2,1.7-1.5,3.1c-0.3,0-0.5,0-0.8,0
			c-0.3,0-0.5,0-0.7,0c-0.2-1.5-0.6-2.7-1.3-3.4c-1.2-1.1-2.6-1.4-3.8-0.8c-0.9,0.5-1.5,1.5-1.3,2.5c0.3,1.4,1.1,2.8,4.7,3.3
			c0.1,2.2,0,4.9-0.2,7.1h-1.6V35c0-0.3-0.2-0.6-0.5-0.8c-1.1-0.6-2.1-1.3-2.9-2.1c-1.9-1.9-2.9-4.5-2.9-7.2
			c0-5.7,4.7-10.4,10.4-10.4c5.7,0,10.4,4.7,10.4,10.4C37.2,27.4,36.4,29.8,34.8,31.7z M29.5,31.5c0.2-0.7,0.4-1.3,0.8-1.5
			c0.4-0.3,0.7-0.5,1-0.5c0,0,0.1,0,0.1,0c0.2,0.1,0.3,0.3,0.4,0.4c0,0.1,0,0.4-0.3,0.7C31.2,30.9,30.7,31.3,29.5,31.5z M24.3,31.4
			c-2.5-0.4-2.7-1.3-2.8-1.8c0-0.1,0.1-0.4,0.4-0.6c0.1-0.1,0.3-0.1,0.4-0.1c0.4,0,0.8,0.2,1.3,0.7C23.9,29.8,24.2,30.5,24.3,31.4z"
			/>
	</g>
	<path class="st1" d="M38.1,33.3"/>
</g>
</svg>
