<?xml version="1.0" encoding="utf-8"?>
<!-- Generator: Adobe Illustrator 25.0.1, SVG Export Plug-In . SVG Version: 6.00 Build 0)  -->
<svg version="1.1" id="Capa_1" xmlns="http://www.w3.org/2000/svg" xmlns:xlink="http://www.w3.org/1999/xlink" x="0px" y="0px"
	 viewBox="0 0 50 50" style="enable-background:new 0 0 50 50;" xml:space="preserve">
<style type="text/css">
	.st0{fill:#434343;}
</style>
<g>
	<g id="Menu_1_">
		<path class="st0" d="M1.6,15.6h46.9c0.9,0,1.6-0.7,1.6-1.6c0-0.9-0.7-1.6-1.6-1.6H1.6c-0.9,0-1.6,0.7-1.6,1.6
			C0,14.9,0.7,15.6,1.6,15.6z"/>
		<path class="st0" d="M48.4,23.4H1.6C0.7,23.4,0,24.1,0,25c0,0.9,0.7,1.6,1.6,1.6h46.9c0.9,0,1.6-0.7,1.6-1.6
			C50,24.1,49.3,23.4,48.4,23.4z"/>
		<path class="st0" d="M48.4,34.4H17.2c-0.9,0-1.6,0.7-1.6,1.6c0,0.9,0.7,1.6,1.6,1.6h31.3c0.9,0,1.6-0.7,1.6-1.6
			C50,35.1,49.3,34.4,48.4,34.4z"/>
	</g>
</g>
</svg>
