<?xml version="1.0" encoding="utf-8"?>
<!-- Generator: Adobe Illustrator 25.0.1, SVG Export Plug-In . SVG Version: 6.00 Build 0)  -->
<svg version="1.1" id="Capa_1" xmlns="http://www.w3.org/2000/svg" xmlns:xlink="http://www.w3.org/1999/xlink" x="0px" y="0px"
	 viewBox="0 0 50 50" style="enable-background:new 0 0 50 50;" xml:space="preserve">
<style type="text/css">
	.st0{fill:#292929;}
</style>
<path class="st0" d="M49.3,35l-7.6-7.5l2.6-2.6c1.3-1.3,1.3-3.5,0-4.8c-0.5-0.5-1.2-0.8-1.8-0.9c0.7-1.3,0.5-2.9-0.6-3.9
	c-0.6-0.6-1.2-0.9-2-1c0.5-1.2,0.2-2.6-0.8-3.6c-0.5-0.5-1.2-0.9-2-1c0.6-1.2,0.3-2.8-0.7-3.8c-1.2-1.2-2.9-1.3-4.3-0.4
	c-1.4-2.2-4.8-2-5.2-2h-6.6c-0.4,0-0.7,0.3-0.8,0.7c0,0.1-0.2,1.6,0.3,2.9c-1.3-0.8-3-0.6-4.1,0.5c-1,1-1.2,2.4-0.8,3.6
	c-0.7,0.1-1.3,0.4-1.9,0.9c-0.6,0.6-1,1.5-1,2.4c0,0.5,0.1,1,0.3,1.4c-0.8,0-1.6,0.4-2.2,1c-1.1,1.1-1.3,2.8-0.5,4.1
	C9.1,21.2,8.5,21.5,8,22c-1.3,1.3-1.3,3.5,0,4.8l1.8,1.8l-9,9.3c-0.3,0.3-0.3,0.8,0,1.1c0.2,0.2,0.4,0.2,0.6,0.2
	c0.2,0,0.4-0.1,0.6-0.2l9.1-9.3c0.6,0.4,1.2,0.5,1.8,0.5c0.9,0,1.7-0.3,2.4-1c0.7-0.7,1.1-1.7,1-2.7c0.1,0,0.2,0,0.3,0
	c0.9,0,1.7-0.3,2.4-1c0.7-0.7,1-1.7,1-2.7c0.3,0.1,0.5,0.1,0.8,0.1c0.9,0,1.8-0.4,2.4-1c0.7-0.7,1.1-1.7,1-2.7c0.1,0,0.1,0,0.2,0
	c0.9,0,1.7-0.3,2.4-1c0.6-0.6,1-1.5,1-2.4c0-0.9-0.4-1.8-1-2.4l-0.1-0.1l6.4-6.4c0.7-0.7,1.8-0.7,2.5,0c0.7,0.7,0.7,1.8,0,2.5
	l-4.7,4.7c-0.3,0.3-0.3,0.8,0,1.1c0.2,0.2,0.4,0.2,0.6,0.2c0,0,0,0,0.1,0c0.2,0,0.5-0.1,0.6-0.2l3.5-3.5c0.7-0.7,1.8-0.7,2.5,0
	c0.7,0.7,0.7,1.8,0,2.5l-3.4,3.4l-0.1,0.1c0,0,0,0,0,0l0,0c0,0,0,0,0,0c-0.1,0.1-0.1,0.2-0.2,0.3c0,0,0,0.1,0,0.1c0,0.1,0,0.1,0,0.2
	c0,0.1,0,0.1,0,0.2c0,0,0,0.1,0,0.1c0,0.1,0.1,0.1,0.1,0.2c0,0,0,0.1,0.1,0.1c0,0,0,0,0,0c0,0,0,0,0,0c0,0,0.1,0.1,0.1,0.1
	c0,0,0.1,0.1,0.1,0.1c0.1,0,0.2,0,0.2,0c0,0,0,0,0.1,0c0,0,0,0,0,0c0.1,0,0.1,0,0.2,0c0,0,0.1,0,0.1,0c0,0,0.1-0.1,0.1-0.1
	c0.1,0,0.1-0.1,0.1-0.1l2.6-2.6c0.7-0.7,1.8-0.7,2.5,0c0.7,0.7,0.7,1.8,0,2.5l-2.6,2.6c0,0,0,0.1-0.1,0.1l0,0
	c-0.3,0.3-0.3,0.8,0,1.1c0.3,0.3,0.8,0.3,1.1,0l1.4-1.4c0.7-0.7,1.8-0.7,2.5,0c0.7,0.7,0.7,1.8,0,2.5L34,32.7
	c-0.3,0.3-4.6,3.8-8.4,3.4c-0.2,0-0.5,0.1-0.7,0.2l-8.5,8.8c-0.3,0.3-0.3,0.8,0,1.1c0.2,0.2,0.4,0.2,0.6,0.2c0.2,0,0.4-0.1,0.6-0.2
	l6.4-6.6c2.4,1.5,4.4,1.6,5.2,1.5l5.1,5.1c0.2,0.2,0.4,0.2,0.6,0.2c0.2,0,0.4-0.1,0.6-0.2c0.3-0.3,0.3-0.8,0-1.1l-5.4-5.4
	c-0.2-0.2-0.5-0.3-0.7-0.2c-0.1,0-1.8,0.4-4.2-1.1l0.7-0.7c4.4,0.1,9-3.7,9.2-3.8c0,0,0,0,0,0l5.3-5.3l7.7,7.5
	c0.2,0.2,0.4,0.2,0.6,0.2c0.2,0,0.4-0.1,0.6-0.2C49.6,35.8,49.6,35.3,49.3,35z M14,28.1c-0.7,0.7-1.8,0.7-2.5,0l-2.4-2.4
	c-0.7-0.7-0.7-1.8,0-2.5c0.3-0.3,0.8-0.5,1.2-0.5c0.5,0,0.9,0.2,1.3,0.5l2.4,2.4C14.7,26.3,14.7,27.4,14,28.1z M17.7,24.4
	c-0.7,0.7-1.8,0.7-2.5,0l-3.7-3.7c-0.7-0.7-0.7-1.8,0-2.5c0.3-0.3,0.8-0.5,1.2-0.5c0.5,0,0.9,0.2,1.3,0.5l3.7,3.7
	c0.3,0.3,0.5,0.8,0.5,1.2C18.2,23.6,18,24,17.7,24.4z M21.9,20.8C21.9,20.8,21.9,20.8,21.9,20.8c-0.7,0.7-1.8,0.7-2.5,0l-5-5
	c-0.3-0.3-0.5-0.8-0.5-1.3c0-0.5,0.2-0.9,0.5-1.2c0.3-0.3,0.8-0.5,1.2-0.5c0.3,0,0.6,0.1,0.9,0.2l5.3,5.3c0.1,0.1,0.2,0.2,0.3,0.3
	C22.5,19.3,22.5,20.2,21.9,20.8z M25.4,17.2L25.4,17.2c-0.6,0.6-1.5,0.7-2.2,0.3c-0.1-0.1-0.2-0.2-0.2-0.3l-5-5
	c-0.2-0.2-0.4-0.3-0.6-0.4L17,11.3c-0.7-0.7-0.7-1.8,0-2.5c0.3-0.3,0.8-0.5,1.2-0.5s0.9,0.2,1.2,0.5l5.1,5.1c0,0.1,0.1,0.1,0.1,0.2
	c0,0,0.1,0.1,0.2,0.1l0.5,0.5c0.3,0.3,0.5,0.8,0.5,1.2C25.9,16.4,25.7,16.9,25.4,17.2z M22.4,9.4c0.2,0.1,0.5,0.1,0.8,0.1
	c1.1,0.1,1.8,0.1,2.4,0.1c1.2,0,1.4-0.2,1.5-0.3c0.2-0.2,0.3-0.4,0.3-0.6C27.4,8.3,27,8,26.6,8c-0.1,0-0.2,0-0.4,0.1
	c-0.2,0-0.9,0.1-2.9-0.1c-0.6,0-1.1-0.3-1.4-0.7c-0.5-0.6-0.6-1.5-0.6-2.2H27c0,0,0,0,0.1,0c0,0,3.1-0.2,3.9,1.5l-5.7,5.7L22.4,9.4z
	"/>
</svg>
