<?xml version="1.0" encoding="utf-8"?>
<!-- Generator: Adobe Illustrator 25.0.1, SVG Export Plug-In . SVG Version: 6.00 Build 0)  -->
<svg version="1.1" id="Capa_1" xmlns="http://www.w3.org/2000/svg" xmlns:xlink="http://www.w3.org/1999/xlink" x="0px" y="0px"
	 viewBox="0 0 50 50" style="enable-background:new 0 0 50 50;" xml:space="preserve">
<style type="text/css">
	.st0{fill:#292929;}
</style>
<g>
	<path class="st0" d="M38.4,16c0.8-0.9,1.2-2.2,1.2-3.6c0-2.9-2-5.2-4.6-5.2c-1.6,0-3,0.9-3.9,2.4c-0.2,0.4-0.1,1,0.3,1.2
		c0.4,0.2,1,0.1,1.2-0.3C33.3,9.5,34.2,9,35.1,9c1.6,0,2.8,1.6,2.8,3.5c0,1.7-1,3.2-2.4,3.4c-0.1,0-0.3,0.1-0.4,0.2
		c-0.8-2.6-3.2-4.5-6.1-4.5h-0.8c1-1.2,1.7-2.8,1.7-4.7c0-3.5-2.4-6.4-5.4-6.4c-3,0-5.4,2.9-5.4,6.4c0,1.8,0.7,3.5,1.7,4.7h-0.1
		c-2.8,0-5.2,1.9-6,4.4c-0.1,0-0.2-0.1-0.3-0.1c-1.3-0.3-2.4-1.8-2.4-3.4c0-1.9,1.3-3.5,2.8-3.5c0.4,0,0.8,0.1,1.2,0.3
		c0.4,0.2,1,0.1,1.2-0.3c0.2-0.4,0.1-1-0.3-1.2c-0.6-0.4-1.4-0.6-2.1-0.6c-2.5,0-4.6,2.4-4.6,5.2c0,1.4,0.5,2.6,1.2,3.6
		c-3.4,0.1-6.2,2.8-6.2,6.1v7.5c0,0.5,0.4,0.9,0.9,0.9s0.9-0.4,0.9-0.9v-7.5c0-2.4,2.1-4.4,4.6-4.4h2.5c0.1,0,0.1,0,0.2,0
		c0,0.1,0,0.1,0,0.2v12c0,3.8,1.8,6.1,4.8,6.3v11c0,1.3,1,2.3,2.3,2.3h7c1.3,0,2.3-1,2.3-2.3v-11c2.9-0.3,4.6-2.6,4.6-6.3V18
		c0-0.1,0-0.2,0-0.2c0.1,0,0.2,0.1,0.3,0.1h2.5c2.5,0,4.6,2,4.6,4.4v7.5c0,0.5,0.4,0.9,0.9,0.9s0.9-0.4,0.9-0.9v-7.5
		C44.6,18.8,41.9,16.1,38.4,16z M20.9,6.9c0-2.6,1.6-4.7,3.6-4.7c2,0,3.6,2.1,3.6,4.7s-1.6,4.7-3.6,4.7C22.6,11.6,20.9,9.5,20.9,6.9
		z M33.7,29.9c0,1.6-0.4,4.2-2.9,4.6V21.7c0-0.5-0.4-0.9-0.9-0.9c-0.5,0-0.9,0.4-0.9,0.9v25.5c0,0.3-0.2,0.5-0.5,0.5h-3V35.2
		c0-0.5-0.4-0.9-0.9-0.9c-0.5,0-0.9,0.4-0.9,0.9v12.6h-2.3c-0.3,0-0.5-0.2-0.5-0.5V21.7c0-0.5-0.4-0.9-0.9-0.9
		c-0.5,0-0.9,0.4-0.9,0.9v12.8c-2.6-0.2-3-2.9-3-4.6V18c0-2.5,2.1-4.6,4.6-4.6h8.3c2.5,0,4.6,2.1,4.6,4.6V29.9z"/>
	<path class="st0" d="M39.7,23.4c-0.5,0-0.9,0.4-0.9,0.9v21.4c0,0.3-0.2,0.5-0.4,0.5H36v-9.8c0-0.5-0.4-0.9-0.9-0.9
		c-0.5,0-0.9,0.4-0.9,0.9v9.8h-1.9c-0.5,0-0.9,0.4-0.9,0.9c0,0.5,0.4,0.9,0.9,0.9h6.2c1.2,0,2.1-1,2.1-2.2V24.3
		C40.6,23.8,40.2,23.4,39.7,23.4z"/>
	<path class="st0" d="M17.7,46.2h-1.9v-9.8c0-0.5-0.4-0.9-0.9-0.9S14,35.9,14,36.4v9.8h-2.5c-0.2,0-0.4-0.2-0.4-0.5V24.3
		c0-0.5-0.4-0.9-0.9-0.9s-0.9,0.4-0.9,0.9v21.4c0,1.2,0.9,2.2,2.1,2.2h6.2c0.5,0,0.9-0.4,0.9-0.9C18.6,46.6,18.2,46.2,17.7,46.2z"/>
</g>
</svg>
