<?xml version="1.0" encoding="utf-8"?>
<!-- Generator: Adobe Illustrator 25.0.1, SVG Export Plug-In . SVG Version: 6.00 Build 0)  -->
<svg version="1.1" id="Capa_1" xmlns="http://www.w3.org/2000/svg" xmlns:xlink="http://www.w3.org/1999/xlink" x="0px" y="0px"
	 viewBox="0 0 50 50" style="enable-background:new 0 0 50 50;" xml:space="preserve">
<style type="text/css">
	.st0{fill:#292929;}
</style>
<g>
	<g>
		<g>
			<g>
				<path class="st0" d="M12.9,25C6.2,25,0.8,30.4,0.8,37.1s5.4,12.1,12.1,12.1S25,43.8,25,37.1S19.6,25,12.9,25z M12.9,47.6
					c-5.8,0-10.5-4.7-10.5-10.5s4.7-10.5,10.5-10.5s10.5,4.7,10.5,10.5S18.7,47.6,12.9,47.6z"/>
				<path class="st0" d="M12.9,49.5c-6.8,0-12.4-5.6-12.4-12.4s5.6-12.4,12.4-12.4s12.4,5.6,12.4,12.4S19.7,49.5,12.9,49.5z
					 M12.9,25.3c-6.5,0-11.8,5.3-11.8,11.8s5.3,11.8,11.8,11.8s11.8-5.3,11.8-11.8S19.4,25.3,12.9,25.3z M12.9,47.9
					C7,47.9,2.1,43,2.1,37.1S7,26.3,12.9,26.3c6,0,10.8,4.8,10.8,10.8S18.9,47.9,12.9,47.9z M12.9,26.9c-5.6,0-10.2,4.6-10.2,10.2
					c0,5.6,4.6,10.2,10.2,10.2s10.2-4.6,10.2-10.2C23.1,31.5,18.5,26.9,12.9,26.9z"/>
			</g>
		</g>
	</g>
	<g>
		<g>
			<g>
				<path class="st0" d="M38.7,12.1h-3.2c-0.9,0-1.6-0.7-1.6-1.6c0-0.9,0.7-1.6,1.6-1.6h4.8c0.4,0,0.8-0.4,0.8-0.8
					c0-0.4-0.4-0.8-0.8-0.8h-4.8c-1.8,0-3.2,1.4-3.2,3.2c0,1.8,1.4,3.2,3.2,3.2h3.2c0.9,0,1.6,0.7,1.6,1.6c0,0.9-0.7,1.6-1.6,1.6
					h-4.8c-0.4,0-0.8,0.4-0.8,0.8s0.4,0.8,0.8,0.8h4.8c1.8,0,3.2-1.4,3.2-3.2C41.9,13.5,40.5,12.1,38.7,12.1z"/>
			</g>
		</g>
		<g>
			<g>
				<path class="st0" d="M37.1,5.6c-0.4,0-0.8,0.4-0.8,0.8v12.9c0,0.4,0.4,0.8,0.8,0.8s0.8-0.4,0.8-0.8V6.5
					C37.9,6,37.5,5.6,37.1,5.6z"/>
			</g>
		</g>
	</g>
	<g>
		<g>
			<g>
				<path class="st0" d="M14.2,36.4H11c-0.9,0-1.6-0.7-1.6-1.6c0-0.9,0.7-1.6,1.6-1.6h4.8c0.4,0,0.8-0.4,0.8-0.8
					c0-0.4-0.4-0.8-0.8-0.8H11c-1.8,0-3.2,1.4-3.2,3.2c0,1.8,1.4,3.2,3.2,3.2h3.2c0.9,0,1.6,0.7,1.6,1.6c0,0.9-0.7,1.6-1.6,1.6H9.4
					c-0.4,0-0.8,0.4-0.8,0.8s0.4,0.8,0.8,0.8h4.8c1.8,0,3.2-1.4,3.2-3.2C17.5,37.8,16,36.4,14.2,36.4z"/>
			</g>
		</g>
		<g>
			<g>
				<path class="st0" d="M12.6,29.9c-0.4,0-0.8,0.4-0.8,0.8v12.9c0,0.4,0.4,0.8,0.8,0.8s0.8-0.4,0.8-0.8V30.7
					C13.4,30.3,13.1,29.9,12.6,29.9z"/>
			</g>
		</g>
	</g>
	<g>
		<g>
			<g>
				<path class="st0" d="M37.1,0.8C30.4,0.8,25,6.2,25,12.9S30.4,25,37.1,25s12.1-5.4,12.1-12.1S43.8,0.8,37.1,0.8z M37.1,23.4
					c-5.8,0-10.5-4.7-10.5-10.5S31.3,2.4,37.1,2.4s10.5,4.7,10.5,10.5S42.9,23.4,37.1,23.4z"/>
				<path class="st0" d="M37.1,25.3c-6.8,0-12.4-5.6-12.4-12.4S30.3,0.5,37.1,0.5s12.4,5.6,12.4,12.4S43.9,25.3,37.1,25.3z
					 M37.1,1.1c-6.5,0-11.8,5.3-11.8,11.8s5.3,11.8,11.8,11.8s11.8-5.3,11.8-11.8S43.6,1.1,37.1,1.1z M37.1,23.7
					c-6,0-10.8-4.8-10.8-10.8S31.1,2.1,37.1,2.1c6,0,10.8,4.8,10.8,10.8S43,23.7,37.1,23.7z M37.1,2.7c-5.6,0-10.2,4.6-10.2,10.2
					c0,5.6,4.6,10.2,10.2,10.2s10.2-4.6,10.2-10.2C47.3,7.3,42.7,2.7,37.1,2.7z"/>
			</g>
		</g>
	</g>
	<g>
		<g>
			<g>
				<path class="st0" d="M21,5.6c-7.6,0-13.7,6.1-13.7,13.7v2.4c0,0.4,0.4,0.8,0.8,0.8c0.4,0,0.8-0.4,0.8-0.8v-2.4
					c0-6.7,5.4-12.1,12.1-12.1c0.4,0,0.8-0.4,0.8-0.8C21.8,6,21.4,5.6,21,5.6z"/>
				<path class="st0" d="M8.1,22.9c-0.6,0-1.1-0.5-1.1-1.1v-2.4c0-7.7,6.3-14,14-14c0.6,0,1.1,0.5,1.1,1.1S21.6,7.6,21,7.6
					c-6.5,0-11.8,5.3-11.8,11.8v2.4C9.2,22.4,8.7,22.9,8.1,22.9z M21,6C13.6,6,7.6,12,7.6,19.4v2.4c0,0.3,0.2,0.5,0.5,0.5
					c0.3,0,0.5-0.2,0.5-0.5v-2.4C8.6,12.5,14.1,7,21,7c0.3,0,0.5-0.2,0.5-0.5C21.5,6.2,21.2,6,21,6z"/>
			</g>
		</g>
	</g>
	<g>
		<g>
			<g>
				<path class="st0" d="M8.7,21.3l-3.2-4c-0.3-0.3-0.8-0.4-1.1-0.1c-0.3,0.3-0.4,0.8-0.1,1.1l3.2,4c0.2,0.2,0.4,0.3,0.6,0.3
					c0.2,0,0.4-0.1,0.5-0.2C8.9,22.1,9,21.6,8.7,21.3z"/>
				<path class="st0" d="M8.1,22.9c-0.3,0-0.7-0.2-0.9-0.4l-3.2-4c-0.4-0.5-0.3-1.2,0.2-1.6c0.2-0.2,0.5-0.3,0.8-0.2
					c0.3,0,0.6,0.2,0.7,0.4l3.2,4c0.4,0.5,0.3,1.2-0.2,1.6C8.6,22.8,8.3,22.9,8.1,22.9z M4.8,17.2c-0.1,0-0.2,0-0.3,0.1
					c-0.2,0.2-0.2,0.5-0.1,0.7l3.2,4c0.2,0.2,0.5,0.2,0.7,0.1c0.2-0.2,0.2-0.5,0.1-0.7l-3.2-4C5.1,17.3,5,17.3,4.8,17.2
					C4.9,17.2,4.9,17.2,4.8,17.2z"/>
			</g>
		</g>
	</g>
	<g>
		<g>
			<g>
				<path class="st0" d="M11.8,17.1c-0.3-0.3-0.9-0.2-1.1,0.1l-3.2,4c-0.3,0.3-0.2,0.9,0.1,1.1c0.1,0.1,0.3,0.2,0.5,0.2
					c0.2,0,0.5-0.1,0.6-0.3l3.2-4C12.2,17.9,12.1,17.4,11.8,17.1z"/>
				<path class="st0" d="M8.1,22.9c-0.3,0-0.5-0.1-0.7-0.2C7.1,22.5,7,22.2,7,21.9c0-0.3,0.1-0.6,0.2-0.8l3.2-4
					c0.4-0.5,1.1-0.6,1.6-0.2l0,0c0.5,0.4,0.6,1.1,0.2,1.6l-3.2,4C8.7,22.7,8.4,22.9,8.1,22.9z M11.3,17.2c-0.1,0-0.3,0.1-0.4,0.2
					l-3.2,4c-0.1,0.1-0.1,0.2-0.1,0.4c0,0.1,0.1,0.3,0.2,0.3c0.2,0.2,0.5,0.1,0.7-0.1l3.2-4c0.2-0.2,0.1-0.5-0.1-0.7
					C11.5,17.3,11.4,17.2,11.3,17.2z"/>
			</g>
		</g>
	</g>
	<g>
		<g>
			<g>
				<path class="st0" d="M41.9,27.4c-0.4,0-0.8,0.4-0.8,0.8v2.4c0,6.7-5.4,12.1-12.1,12.1c-0.4,0-0.8,0.4-0.8,0.8s0.4,0.8,0.8,0.8
					c7.6,0,13.7-6.1,13.7-13.7v-2.4C42.7,27.8,42.4,27.4,41.9,27.4z"/>
				<path class="st0" d="M29,44.7c-0.6,0-1.1-0.5-1.1-1.1c0-0.6,0.5-1.1,1.1-1.1c6.5,0,11.8-5.3,11.8-11.8v-2.4
					c0-0.6,0.5-1.1,1.1-1.1c0.6,0,1.1,0.5,1.1,1.1v2.4C43,38.4,36.8,44.7,29,44.7z M41.9,27.7c-0.3,0-0.5,0.2-0.5,0.5v2.4
					C41.4,37.5,35.9,43,29,43c-0.3,0-0.5,0.2-0.5,0.5S28.8,44,29,44c7.4,0,13.4-6,13.4-13.4v-2.4C42.4,28,42.2,27.7,41.9,27.7z"/>
			</g>
		</g>
	</g>
	<g>
		<g>
			<g>
				<path class="st0" d="M45.8,31.8l-3.2-4c-0.3-0.3-0.8-0.4-1.1-0.1c-0.3,0.3-0.4,0.8-0.1,1.1l3.2,4c0.2,0.2,0.4,0.3,0.6,0.3
					c0.2,0,0.4-0.1,0.5-0.2C46,32.6,46.1,32.1,45.8,31.8z"/>
				<path class="st0" d="M45.2,33.4c-0.3,0-0.7-0.2-0.9-0.4l-3.2-4c-0.4-0.5-0.3-1.2,0.2-1.6c0.2-0.2,0.5-0.3,0.8-0.2
					c0.3,0,0.6,0.2,0.7,0.4l3.2,4c0.4,0.5,0.3,1.2-0.2,1.6C45.7,33.3,45.4,33.4,45.2,33.4z M41.9,27.7c-0.1,0-0.2,0-0.3,0.1
					c-0.2,0.2-0.2,0.5-0.1,0.7l3.2,4c0.2,0.2,0.5,0.2,0.7,0.1c0.2-0.2,0.2-0.5,0.1-0.7l-3.2-4C42.2,27.8,42.1,27.7,41.9,27.7
					C42,27.7,42,27.7,41.9,27.7z"/>
			</g>
		</g>
	</g>
	<g>
		<g>
			<g>
				<path class="st0" d="M42.4,27.6c-0.3-0.3-0.9-0.2-1.1,0.1l-3.2,4c-0.3,0.3-0.2,0.9,0.1,1.1c0.1,0.1,0.3,0.2,0.5,0.2
					c0.2,0,0.5-0.1,0.6-0.3l3.2-4C42.8,28.4,42.8,27.9,42.4,27.6z"/>
				<path class="st0" d="M38.7,33.4c-0.3,0-0.5-0.1-0.7-0.2c-0.5-0.4-0.6-1.1-0.2-1.6l3.2-4c0.4-0.5,1.1-0.6,1.6-0.2l0,0
					c0.5,0.4,0.6,1.1,0.2,1.6l-3.2,4C39.4,33.2,39,33.4,38.7,33.4z M41.9,27.7c-0.1,0-0.3,0.1-0.4,0.2l-3.2,4
					c-0.2,0.2-0.1,0.5,0.1,0.7c0.2,0.2,0.5,0.1,0.7-0.1l3.2-4c0.2-0.2,0.1-0.5-0.1-0.7l0,0C42.2,27.8,42,27.7,41.9,27.7z"/>
			</g>
		</g>
	</g>
</g>
</svg>
