<?xml version="1.0" encoding="utf-8"?>
<!-- Generator: Adobe Illustrator 25.0.1, SVG Export Plug-In . SVG Version: 6.00 Build 0)  -->
<svg version="1.1" id="Capa_1" xmlns="http://www.w3.org/2000/svg" xmlns:xlink="http://www.w3.org/1999/xlink" x="0px" y="0px"
	 viewBox="0 0 50 50" style="enable-background:new 0 0 50 50;" xml:space="preserve">
<style type="text/css">
	.st0{fill:#292929;}
</style>
<g>
	<path class="st0" d="M9.7,27.2c0.5,0.1,1-0.2,1.1-0.7c0.1-0.5-0.2-1-0.7-1.1c-3.4-0.7-3.5-4.2-3.5-4.3v-8.4
		C6.6,7,11.2,2.4,16.9,2.4S27.2,7,27.2,12.7l0,8.4c0,0.1,0.1,3.6-3.8,4.3c-0.5,0.1-0.8,0.6-0.7,1.1c0.1,0.4,0.5,0.8,0.9,0.8
		c0.1,0,0.1,0,0.2,0c4.4-0.8,5.4-4.4,5.4-6.1v-8.4C29,6,23.6,0.5,16.9,0.5S4.8,6,4.8,12.7V21C4.8,22.8,5.8,26.4,9.7,27.2z"/>
	<path class="st0" d="M48.1,27.8h-6.5c0,0,0,0,0,0c-1.9,0-5.5,1-6.1,4.8c-0.1,0.1-0.2,0.2-0.3,0.3l-2.2,4v-2.6c0-3.3-2.7-6-6-6h-2.5
		c-0.1,0-0.2,0-0.3,0.1c-0.1,0-0.2-0.1-0.3-0.1c-1.7,0-3-1.2-3-2.8v-0.5c2.3-1.4,3.9-3.9,3.9-6.8V12c0-1.4-0.3-2.7-1-3.9
		c-0.2-0.4-0.7-0.6-1.2-0.4L9.4,13.8c-0.3,0.1-0.5,0.5-0.5,0.8v3.6c0,3,1.6,5.5,4,6.9v0.4c0,1.5-1.3,2.8-3,2.8c0,0-0.1,0-0.1,0
		c0,0-0.1,0-0.1,0H7c-3.3,0-6,2.7-6,6v13.8c0,0.5,0.4,0.9,0.9,0.9c0.5,0,0.9-0.4,0.9-0.9V34.4c0-2.3,1.9-4.2,4.2-4.2h2.2l6.8,9.9
		c0.2,0.2,0.4,0.4,0.7,0.4c0.3,0,0.6-0.1,0.8-0.4l7.3-9.9h2c2.3,0,4.2,1.9,4.2,4.2v13.8c0,0.5,0.4,0.9,0.9,0.9s0.9-0.4,0.9-0.9v-7.5
		c0-0.1,0.1-0.1,0.1-0.2l3.4-6.2h4.2l-7.2,13.8c-0.2,0.4-0.1,1,0.4,1.2c0.1,0.1,0.3,0.1,0.4,0.1c0.3,0,0.6-0.2,0.8-0.5l7.6-14.7h0.4
		c0,0,0.1,0,0.1,0c1.8-0.2,5.4-1.6,5.8-5.5c0-0.3-0.1-0.5-0.2-0.7C48.6,27.9,48.3,27.8,48.1,27.8z M10.7,18.3v-3l11.8-5.4
		c0.3,0.7,0.4,1.5,0.4,2.2v6.3c0,2.4-1.4,4.4-3.4,5.5c0,0,0,0,0,0c-0.8,0.4-1.8,0.7-2.8,0.7c-0.8,0-1.6-0.2-2.4-0.5
		c-0.1-0.1-0.3-0.2-0.5-0.2C12,22.7,10.7,20.6,10.7,18.3z M14.7,25.9c0.7,0.2,1.4,0.3,2.1,0.3c0.8,0,1.5-0.1,2.2-0.3
		c0.1,2,1.7,3.7,3.7,4.2l-2.5,3.3h-6.6L11.3,30C13.2,29.4,14.5,27.9,14.7,25.9z M16.9,38l-1.9-2.8h4L16.9,38z M43.1,32.5h-0.9h-4.8
		c0.8-2.7,3.9-2.8,4.3-2.8h5.4C46.1,32,43.4,32.4,43.1,32.5z"/>
	<path class="st0" d="M8,37.5c0.3-0.4,0.3-1-0.1-1.3c-0.4-0.3-1-0.3-1.3,0.1C5,38.1,3,42.5,6.4,46.5v1.4c0,0.5,0.4,0.9,0.9,0.9
		c0.5,0,0.9-0.4,0.9-0.9v-1.8c0-0.2-0.1-0.4-0.2-0.6C4.5,41.7,7.8,37.6,8,37.5z"/>
	<path class="st0" d="M25.7,36.2c-0.4,0.3-0.4,0.9-0.1,1.3c0.1,0.2,3.5,4.2,0,8.1c-0.2,0.2-0.2,0.4-0.2,0.6v1.8
		c0,0.5,0.4,0.9,0.9,0.9s0.9-0.4,0.9-0.9v-1.4c3.3-4,1.3-8.4-0.2-10.2C26.7,35.9,26.1,35.9,25.7,36.2z"/>
	<path class="st0" d="M34.8,6.3h4.9c0.5,0,0.9-0.4,0.9-0.9c0-0.5-0.4-0.9-0.9-0.9h-4.9c-0.5,0-0.9,0.4-0.9,0.9
		C33.8,5.9,34.3,6.3,34.8,6.3z"/>
	<path class="st0" d="M44.2,4.5h-1.9c-0.5,0-0.9,0.4-0.9,0.9c0,0.5,0.4,0.9,0.9,0.9h1.9c0.5,0,0.9-0.4,0.9-0.9
		C45.1,4.9,44.7,4.5,44.2,4.5z"/>
	<path class="st0" d="M44.2,7.7h-9.4c-0.5,0-0.9,0.4-0.9,0.9c0,0.5,0.4,0.9,0.9,0.9h9.4c0.5,0,0.9-0.4,0.9-0.9
		C45.1,8.1,44.7,7.7,44.2,7.7z"/>
	<path class="st0" d="M39.7,10.9h-4.9c-0.5,0-0.9,0.4-0.9,0.9c0,0.5,0.4,0.9,0.9,0.9h4.9c0.5,0,0.9-0.4,0.9-0.9
		C40.6,11.3,40.2,10.9,39.7,10.9z"/>
	<path class="st0" d="M45.1,0.5H34.3c-2.2,0-3.9,1.8-3.9,3.9v8.3c0,2.2,1.8,3.9,3.9,3.9H36v3.1c0,0.4,0.2,0.7,0.6,0.8
		c0.1,0,0.2,0.1,0.4,0.1c0.2,0,0.5-0.1,0.6-0.3l3.8-3.8h3.8c2.2,0,3.9-1.8,3.9-3.9V4.5C49,2.3,47.2,0.5,45.1,0.5z M47.2,12.8
		c0,1.2-0.9,2.1-2.1,2.1h-4.2c-0.2,0-0.5,0.1-0.6,0.3l-2.5,2.5v-1.8c0-0.5-0.4-0.9-0.9-0.9h-2.6c-1.2,0-2.1-0.9-2.1-2.1V4.5
		c0-1.2,0.9-2.1,2.1-2.1h10.7c1.2,0,2.1,0.9,2.1,2.1V12.8z"/>
</g>
</svg>
