<?xml version="1.0" standalone="no"?>
<!DOCTYPE svg PUBLIC "-//W3C//DTD SVG 20010904//EN"
 "http://www.w3.org/TR/2001/REC-SVG-20010904/DTD/svg10.dtd">
<svg version="1.0" xmlns="http://www.w3.org/2000/svg"
 width="150.000000pt" height="150.000000pt" viewBox="0 0 150.000000 150.000000"
 preserveAspectRatio="xMidYMid meet">
<metadata>
Created by potrace 1.11, written by Peter Selinger 2001-2013
</metadata>
<g transform="translate(0.000000,150.000000) scale(0.100000,-0.100000)"
fill="#000000" stroke="none">
<path d="M648 1425 c-2 -2 -21 -7 -41 -10 -49 -8 -163 -47 -207 -71 -241 -132
-372 -354 -365 -617 8 -308 219 -563 530 -642 17 -5 39 -10 50 -13 32 -8 226
-8 270 0 221 40 422 188 515 378 107 220 83 497 -60 687 -111 146 -259 239
-445 279 -37 8 -240 15 -247 9z"/>
</g>
</svg>
